<?xml version="1.0" encoding="utf-8"?>
<!-- Generator: Adobe Illustrator 25.0.1, SVG Export Plug-In . SVG Version: 6.00 Build 0)  -->
<svg version="1.1" id="Layer_1" xmlns="http://www.w3.org/2000/svg" xmlns:xlink="http://www.w3.org/1999/xlink" x="0px" y="0px"
	 viewBox="0 0 30 30" style="enable-background:new 0 0 30 30;" xml:space="preserve" class="icon-mode">
<g>
	<path d="M20.4,2.4c0.3,0,0.6,0.1,0.9,0.2C21.5,2.6,21.7,2.8,22,3c0.2,0.2,0.5,0.4,0.7,0.7s0.5,0.5,0.7,0.7c1.3,1.3,2.2,2.7,2.9,4.3
		c0.7,1.5,1,3.2,1,5c0,1.2-0.2,2.4-0.5,3.5s-0.8,2.2-1.3,3.1c-0.6,1-1.3,1.9-2.1,2.7c-0.8,0.8-1.7,1.5-2.7,2.1s-2,1-3.1,1.3
		c-1.1,0.3-2.3,0.5-3.5,0.5c-0.9,0-1.8-0.1-2.7-0.2c-0.8-0.2-1.6-0.4-2.4-0.7c-0.8-0.3-1.5-0.7-2.2-1.2c-0.7-0.5-1.4-1-2.1-1.7
		c-0.2-0.2-0.5-0.4-0.7-0.6c-0.2-0.2-0.5-0.5-0.7-0.7s-0.4-0.5-0.5-0.8c-0.1-0.3-0.2-0.6-0.2-0.9c0-0.3,0.1-0.6,0.2-0.9
		c0.1-0.3,0.3-0.5,0.5-0.7c0.2-0.2,0.5-0.4,0.7-0.5c0.3-0.1,0.6-0.2,0.9-0.2c0.2,0,0.3,0,0.5,0.1c0.1,0,0.3,0.1,0.4,0.1
		c0.5,0.2,1,0.3,1.5,0.4c0.5,0.1,1,0.2,1.5,0.2c0.9,0,1.8-0.1,2.6-0.4s1.6-0.6,2.4-1s1.4-1,2-1.6s1.1-1.3,1.6-2
		c0.4-0.7,0.8-1.5,1-2.4s0.4-1.7,0.4-2.6c0-0.5-0.1-1-0.2-1.5c-0.1-0.5-0.3-1-0.4-1.5c0-0.1-0.1-0.3-0.1-0.4c0-0.1-0.1-0.3-0.1-0.5
		c0-0.3,0.1-0.6,0.2-0.9s0.3-0.5,0.5-0.7c0.2-0.2,0.5-0.4,0.7-0.5S20,2.4,20.4,2.4z M21.6,22.6c1.3-1.2,2.4-2.5,3.1-4
		c0.7-1.5,1.1-3.1,1.1-4.9c0-1.6-0.3-3.1-0.9-4.5c-0.6-1.4-1.4-2.7-2.5-3.8l-1.4-1.4c-0.2-0.1-0.3-0.2-0.5-0.2
		c-0.2,0-0.4,0.1-0.5,0.2c-0.1,0.1-0.2,0.3-0.2,0.5c0,0.1,0,0.2,0.1,0.3c0.1,0.3,0.2,0.6,0.3,0.9c0.1,0.3,0.2,0.6,0.2,0.9
		c0.1,0.3,0.1,0.6,0.2,0.9s0.1,0.6,0.1,0.9c0,1.1-0.1,2.1-0.4,3.1c-0.3,1-0.7,1.9-1.2,2.7c-0.5,0.8-1.1,1.6-1.8,2.3
		c-0.7,0.7-1.5,1.3-2.3,1.8c-0.8,0.5-1.8,0.9-2.7,1.2c-1,0.3-2,0.4-3.1,0.4c-0.6,0-1.2-0.1-1.8-0.2c-0.6-0.1-1.1-0.3-1.7-0.5
		c0,0-0.1,0-0.1,0c0,0-0.1,0-0.1,0c-0.2,0-0.4,0.1-0.5,0.2c-0.1,0.2-0.2,0.3-0.2,0.5c0,0.2,0.1,0.4,0.2,0.5L5.9,22
		c1.1,1.1,2.4,2,3.8,2.5c1.4,0.6,2.9,0.9,4.5,0.9c1.2,0,2.3-0.2,3.4-0.5c-0.2-0.3-0.2-0.7-0.2-1c0-0.3,0.1-0.6,0.2-0.9
		c0.1-0.3,0.3-0.5,0.5-0.7c0.2-0.2,0.4-0.4,0.7-0.5s0.6-0.2,0.9-0.2c0.4,0,0.8,0.1,1.1,0.3C21.1,22,21.4,22.3,21.6,22.6z M12.3,21.5
		c0.2,0,0.3,0,0.4,0.1s0.3,0.1,0.4,0.2c0.1,0.1,0.2,0.2,0.2,0.4c0.1,0.1,0.1,0.3,0.1,0.4s0,0.3-0.1,0.4s-0.1,0.3-0.3,0.4
		c-0.1,0.1-0.2,0.2-0.4,0.3s-0.3,0.1-0.4,0.1s-0.3,0-0.4-0.1s-0.3-0.1-0.4-0.3c-0.1-0.1-0.2-0.2-0.2-0.4s-0.1-0.3-0.1-0.4
		s0-0.3,0.1-0.4s0.1-0.3,0.2-0.4s0.2-0.2,0.4-0.3S12.1,21.5,12.3,21.5z M22.3,10c-0.2,0-0.3,0-0.5-0.1s-0.3-0.1-0.4-0.2
		c-0.1-0.1-0.2-0.2-0.2-0.4S21.1,9,21.1,8.9c0-0.2,0-0.3,0.1-0.4c0.1-0.1,0.1-0.3,0.2-0.4c0.1-0.1,0.2-0.2,0.4-0.2s0.3-0.1,0.5-0.1
		c0.2,0,0.3,0,0.4,0.1S23,8,23.1,8.1c0.1,0.1,0.2,0.2,0.3,0.4s0.1,0.3,0.1,0.4s0,0.3-0.1,0.4s-0.1,0.3-0.3,0.4
		c-0.1,0.1-0.2,0.2-0.4,0.3S22.4,10,22.3,10z M22.7,10.8c0.2,0,0.4,0,0.6,0.1s0.3,0.2,0.5,0.3s0.2,0.3,0.3,0.5s0.1,0.4,0.1,0.6
		c0,0.2,0,0.4-0.1,0.6c-0.1,0.2-0.2,0.3-0.3,0.5s-0.3,0.2-0.5,0.3c-0.2,0.1-0.4,0.1-0.6,0.1s-0.4,0-0.6-0.1
		c-0.2-0.1-0.4-0.2-0.5-0.3c-0.1-0.1-0.2-0.3-0.3-0.5s-0.1-0.4-0.1-0.6c0-0.2,0-0.4,0.1-0.6s0.2-0.3,0.3-0.5s0.3-0.2,0.5-0.3
		C22.3,10.8,22.5,10.8,22.7,10.8z"/>
</g>
</svg>
