<?xml version="1.0" encoding="utf-8"?>
<!-- Generator: Adobe Illustrator 25.0.1, SVG Export Plug-In . SVG Version: 6.00 Build 0)  -->
<svg version="1.1" id="Layer_1" xmlns="http://www.w3.org/2000/svg" xmlns:xlink="http://www.w3.org/1999/xlink" x="0px" y="0px"
	 viewBox="0 0 30 30" style="enable-background:new 0 0 30 30;" xml:space="preserve" class="icon-mode">
<g>
	<path d="M24.8,14.6l1.9,1.7c0.2,0.1,0.3,0.3,0.4,0.5c0.1,0.2,0.1,0.4,0.1,0.6c0,0.4-0.1,0.7-0.3,1c-0.2,0.3-0.5,0.5-0.9,0.5
		l-2.5,0.5l0.8,2.4c0.1,0.2,0.1,0.3,0.1,0.5c0,0.2,0,0.4-0.1,0.6s-0.2,0.3-0.3,0.5s-0.3,0.3-0.5,0.3S23.1,24,22.9,24
		c-0.2,0-0.3,0-0.5-0.1l-2.4-0.8l-0.5,2.5c0,0.2-0.1,0.4-0.2,0.5c-0.1,0.2-0.2,0.3-0.4,0.4c-0.1,0.1-0.3,0.2-0.5,0.3
		s-0.3,0.1-0.5,0.1c-0.2,0-0.4,0-0.6-0.1c-0.2-0.1-0.4-0.2-0.5-0.4L15,24.5l-1.7,1.9c-0.1,0.2-0.3,0.3-0.5,0.4
		c-0.2,0.1-0.4,0.1-0.6,0.1c-0.4,0-0.7-0.1-1-0.3c-0.3-0.2-0.5-0.5-0.5-0.9l-0.5-2.5L7.6,24C7.5,24,7.3,24,7.1,24
		c-0.2,0-0.4,0-0.6-0.1c-0.2-0.1-0.3-0.2-0.5-0.3s-0.3-0.3-0.3-0.5s-0.1-0.4-0.1-0.6c0-0.2,0-0.3,0.1-0.5l0.8-2.4L4,19
		c-0.4-0.1-0.7-0.3-0.9-0.5s-0.3-0.6-0.3-1c0-0.2,0-0.4,0.1-0.6c0.1-0.2,0.2-0.4,0.4-0.5l1.9-1.7l-1.9-1.7c-0.2-0.1-0.3-0.3-0.4-0.5
		c-0.1-0.2-0.1-0.4-0.1-0.6c0-0.4,0.1-0.7,0.3-1c0.2-0.3,0.5-0.5,0.9-0.5l2.5-0.5L5.7,7.3C5.6,7.1,5.6,6.9,5.6,6.8
		c0-0.2,0-0.4,0.1-0.6C5.8,6,5.9,5.8,6,5.7s0.3-0.3,0.5-0.3c0.2-0.1,0.4-0.1,0.6-0.1c0.2,0,0.3,0,0.5,0.1l2.4,0.8l0.5-2.5
		c0.1-0.4,0.3-0.7,0.5-0.9c0.3-0.2,0.6-0.3,1-0.3c0.2,0,0.4,0,0.6,0.1c0.2,0.1,0.4,0.2,0.5,0.4L15,4.8l1.7-1.9
		c0.1-0.2,0.3-0.3,0.5-0.4c0.2-0.1,0.4-0.1,0.6-0.1c0.2,0,0.4,0,0.5,0.1s0.3,0.1,0.5,0.3c0.1,0.1,0.3,0.2,0.4,0.4s0.2,0.3,0.2,0.5
		l0.5,2.5l2.4-0.8c0.2-0.1,0.3-0.1,0.5-0.1c0.2,0,0.4,0,0.6,0.1c0.2,0.1,0.3,0.2,0.5,0.3s0.3,0.3,0.3,0.5c0.1,0.2,0.1,0.4,0.1,0.6
		c0,0.2,0,0.3-0.1,0.5l-0.8,2.4l2.5,0.5c0.4,0.1,0.7,0.3,0.9,0.5c0.2,0.3,0.3,0.6,0.3,1c0,0.2,0,0.4-0.1,0.6
		c-0.1,0.2-0.2,0.4-0.4,0.5L24.8,14.6z M4.3,11.7l3.1,2.7c0-0.6,0.1-1.2,0.3-1.8C7.7,12,8,11.5,8.3,10.9L4.3,11.7z M4.3,17.5l4,0.8
		c-0.3-0.5-0.5-1.1-0.7-1.7c-0.2-0.6-0.2-1.2-0.3-1.8L4.3,17.5z M11,8.1L7.1,6.8l1.3,3.9c0.3-0.5,0.7-1,1.1-1.5S10.5,8.4,11,8.1z
		 M7.1,22.5l3.9-1.3c-0.5-0.3-1-0.7-1.5-1.1s-0.8-0.9-1.1-1.5L7.1,22.5z M8.1,14.6c0,0.6,0.1,1.2,0.2,1.8c0.2,0.6,0.4,1.1,0.7,1.7
		c0.3,0.5,0.7,1,1.1,1.4c0.4,0.4,0.9,0.8,1.4,1.1s1.1,0.5,1.7,0.7s1.2,0.2,1.8,0.2s1.2-0.1,1.8-0.2s1.1-0.4,1.7-0.7s1-0.7,1.4-1.1
		c0.4-0.4,0.8-0.9,1.1-1.4c0.3-0.5,0.5-1.1,0.7-1.7c0.2-0.6,0.2-1.2,0.2-1.8c0-0.6-0.1-1.2-0.2-1.8c-0.2-0.6-0.4-1.1-0.7-1.6
		s-0.7-1-1.1-1.4S19,9,18.5,8.7S17.4,8.1,16.8,8c-0.6-0.2-1.2-0.2-1.8-0.2S13.8,7.8,13.2,8c-0.6,0.2-1.1,0.4-1.7,0.7s-1,0.7-1.4,1.1
		c-0.4,0.4-0.8,0.9-1.1,1.4c-0.3,0.5-0.5,1.1-0.7,1.7C8.2,13.4,8.1,14,8.1,14.6z M12.1,3.9l-0.8,4c0.5-0.3,1.1-0.5,1.7-0.7
		C13.6,7,14.2,7,14.8,6.9L12.1,3.9z M12.1,25.4l2.7-3.1c-0.6,0-1.2-0.1-1.8-0.3s-1.2-0.4-1.7-0.7L12.1,25.4z M17.9,3.9l-2.7,3.1
		C15.8,7,16.4,7,17,7.2c0.6,0.2,1.2,0.4,1.7,0.7L17.9,3.9z M17.9,25.4l0.8-4c-0.5,0.3-1.1,0.5-1.7,0.7c-0.6,0.2-1.2,0.2-1.8,0.3
		L17.9,25.4z M22.9,6.8L19,8.1c0.5,0.3,1,0.7,1.5,1.1s0.8,0.9,1.1,1.5L22.9,6.8z M19,21.2l3.9,1.3l-1.3-3.9c-0.3,0.5-0.7,1-1.1,1.5
		S19.5,20.9,19,21.2z M25.8,11.7l-4-0.8c0.3,0.5,0.5,1.1,0.7,1.7c0.2,0.6,0.2,1.2,0.3,1.8L25.8,11.7z M21.7,18.3l4-0.8l-3.1-2.7
		c0,0.6-0.1,1.2-0.3,1.8C22.3,17.2,22,17.8,21.7,18.3z"/>
</g>
</svg>
