<?xml version="1.0" encoding="utf-8"?>
<!-- Generator: Adobe Illustrator 25.0.1, SVG Export Plug-In . SVG Version: 6.00 Build 0)  -->
<svg version="1.1" id="Layer_1" xmlns="http://www.w3.org/2000/svg" xmlns:xlink="http://www.w3.org/1999/xlink" x="0px" y="0px"
	 viewBox="0 0 30 30" style="enable-background:new 0 0 30 30;" xml:space="preserve" class="icon-mode">
<g>
	<path d="M25,3.9c0.3,0,0.6,0.1,0.9,0.2c0.3,0.1,0.5,0.3,0.7,0.5c0.2,0.2,0.4,0.4,0.5,0.7c0.1,0.3,0.2,0.6,0.2,0.9v12.3
		c0,0.3-0.1,0.6-0.2,0.9c-0.1,0.3-0.3,0.5-0.5,0.7c-0.2,0.2-0.5,0.4-0.7,0.5c-0.3,0.1-0.6,0.2-0.9,0.2h-3.7c0.2,0.2,0.3,0.4,0.4,0.7
		s0.2,0.5,0.2,0.8v2.3H8.1v-2.3c0-0.3,0.1-0.6,0.2-0.8c0.1-0.3,0.2-0.5,0.4-0.7H5c-0.3,0-0.6-0.1-0.9-0.2c-0.3-0.1-0.5-0.3-0.7-0.5
		C3.2,20,3,19.7,2.9,19.5c-0.1-0.3-0.2-0.6-0.2-0.9V6.2c0-0.3,0.1-0.6,0.2-0.9C3,5.1,3.2,4.8,3.4,4.6s0.5-0.4,0.7-0.5
		C4.4,4,4.7,3.9,5,3.9H25z M25.8,18.6V6.2c0-0.2-0.1-0.4-0.2-0.5c-0.2-0.2-0.3-0.2-0.5-0.2H5c-0.2,0-0.4,0.1-0.5,0.2
		C4.3,5.9,4.2,6,4.2,6.2v12.3c0,0.2,0.1,0.4,0.2,0.5c0.1,0.2,0.3,0.2,0.5,0.2h5.4v2.3c-0.2,0-0.4,0.1-0.5,0.2
		c-0.1,0.2-0.2,0.3-0.2,0.5v0.8h10.8v-0.4c0-0.1,0-0.3,0-0.4c0-0.1,0-0.3-0.1-0.4c-0.1-0.1-0.1-0.2-0.2-0.3
		c-0.1-0.1-0.2-0.1-0.4-0.1v-2.3H25c0.2,0,0.4-0.1,0.5-0.2C25.7,19,25.8,18.8,25.8,18.6z M5,17.8V6.2h20v11.5H5z M11.2,21.6v-2.3
		h7.7v2.3H11.2z"/>
</g>
</svg>
